<?xml version="1.0" encoding="utf-8"?>
<!-- Generator: Adobe Illustrator 19.0.0, SVG Export Plug-In . SVG Version: 6.00 Build 0)  -->
<svg version="1.1"
	 xmlns="http://www.w3.org/2000/svg"
	 xmlns:xlink="http://www.w3.org/1999/xlink"
	 x="0px" y="0px" viewBox="0 0 375.3 375.3"
	 style="enable-background:new 0 0 375.3 375.3;"
	 xml:space="preserve">
<defs>
</defs>
<g id="XMLID_29_">
	<path id="XMLID_30_" d="M355.1,275.8c0,13.8-2.6,25.8-7.8,35.9c-5.2,10.1-11.9,18.4-20.2,24.9c-8.4,6.5-17.8,11.3-28.2,14.5
		c-10.4,3.2-21.2,4.8-32.3,4.8h-67.2v-8.1c2.2,0,5.1-0.2,8.6-0.6c3.5-0.4,5.9-0.9,7-1.4c2.3-1,3.9-2.5,5-4.4c1-1.9,1.5-4.3,1.5-7
		v-117c0-2.6-0.4-4.9-1.3-7c-0.9-2.1-2.6-3.7-5.2-4.9c-2.4-1.1-4.9-2-7.7-2.5c-2.7-0.5-5.1-0.9-7.1-1v-8.1h70.9
		c9.8,0,19.4,1.5,28.8,4.5c9.4,3,17.7,7.1,24.7,12.2c9.5,6.8,17,15.7,22.4,26.6C352.4,248,355.1,261,355.1,275.8z M327.1,275.8
		c0-10.9-1.4-20.7-4.3-29.5c-2.9-8.8-7.1-16.5-12.7-23c-5.3-6.2-11.7-11.2-19.4-14.7c-7.7-3.6-16.2-5.4-25.5-5.4
		c-3.1,0-6.6,0.1-10.6,0.2c-3.9,0.1-6.8,0.2-8.7,0.3v124.6c0,6.9,2,11.7,6.1,14.4c4,2.7,10.2,4,18.6,4c9.7,0,18.1-1.7,25.4-5.1
		s13.1-8.2,17.6-14.3c4.7-6.4,8.2-13.8,10.3-22.2C326,296.5,327.1,286.8,327.1,275.8z"/>
</g>
<g id="XMLID_26_">
	<path id="XMLID_27_" d="M170,50.7c-2.1,0.1-4.8,0.4-7.9,0.9c-3.2,0.5-5.8,1.1-8.1,1.9c-2.6,0.9-4.3,2.4-5.3,4.6
		c-0.9,2.1-1.4,4.5-1.4,7v96.1c0,5-1,10.4-3,16c-2,5.6-5,10.7-8.9,15.1c-4.5,5.2-9.8,9.2-16.1,12.1c-6.2,2.9-13.3,4.3-21.3,4.3
		c-12.4,0-22.5-3.5-30.2-10.5c-7.7-7-11.6-16.4-11.6-28.2c0-5.2,1.3-9.8,4-13.8c2.7-4,6.6-6,11.7-6c4.6,0,8.2,1.3,11,3.8
		c2.8,2.6,4.2,5.9,4.2,10.1c0,2.4-0.5,4.9-1.5,7.3c-1,2.4-2.1,4.6-3.3,6.5c-1.1,1.8-2.4,3.8-3.9,6.2c-1.4,2.4-2.5,4.5-3.1,6.4
		c1.6,2.5,4.1,4.7,7.5,6.6c3.4,1.9,7.9,2.9,13.7,2.9c5.6,0,10.1-1.3,13.7-3.8c3.5-2.6,6.2-6,7.9-10.2c1.7-4,2.9-8.8,3.6-14.6
		c0.7-5.8,1.1-12.3,1.1-19.4V66.1c0-2.7-0.4-4.9-1.3-6.7c-0.9-1.8-2.7-3.4-5.4-4.7c-2.4-1.2-5.3-2.2-8.9-2.8c-3.5-0.6-6.5-1-8.7-1.2
		v-8.1H170V50.7z"/>
</g>
<path id="XMLID_24_" d="M8.5,375.3L0,366.9L366.9,0l8.5,8.5L8.5,375.3z"/>
</svg>
