<?xml version="1.0" encoding="utf-8"?>
<!-- Generator: Adobe Illustrator 19.0.0, SVG Export Plug-In . SVG Version: 6.00 Build 0)  -->
<svg fill="#FFF" version="1.1" id="Capa_1" xmlns="http://www.w3.org/2000/svg" xmlns:xlink="http://www.w3.org/1999/xlink" x="0px" y="0px"
	 viewBox="-62 64.3 485.7 485.7" style="enable-background:new -62 64.3 485.7 485.7;" xml:space="preserve">
<style type="text/css">
	.st0{stroke:#FFFFFF;stroke-width:11;stroke-miterlimit:10;}
</style>
<g>
	<g>
		<g>
			<path class="st0" d="M377.9,185.5L190.4,77.3c-4.6-2.6-12.1-2.6-16.8,0L-13.9,185.5c-4.7,2.7-8.5,9.2-8.5,14.6v216.5
				c0,5.3,3.8,11.9,8.5,14.6l187.5,108.2c4.6,2.6,12.1,2.6,16.8,0l187.5-108.2c4.7-2.7,8.5-9.2,8.5-14.6V200
				C386.3,194.7,382.5,188.1,377.9,185.5z M368.6,406.4c0,5.3-3.8,11.9-8.5,14.6l-169.8,98c-4.6,2.7-12.1,2.7-16.8,0l-169.8-98
				c-4.7-2.6-8.5-9.2-8.5-14.6V210.2c0-5.3,3.8-11.9,8.5-14.6l169.8-98c4.6-2.6,12.1-2.6,16.8,0l169.8,98c4.7,2.7,8.5,9.2,8.5,14.6
				V406.4z"/>
		</g>
	</g>
</g>
<g>
	<path d="M156.4,343.9c0,6.2-0.6,11.8-1.8,16.8c-1.2,5.1-3.2,9.5-6.1,13c-2.9,3.6-6.7,6.3-11.4,8.3s-10.6,3-17.6,3
		c-2.4,0-4.7-0.2-7.1-0.6c-2.3-0.3-4.5-0.8-6.4-1.4c-1.9-0.6-3.7-1.2-5.1-1.9c-1.4-0.6-2.4-1.3-2.9-1.8c-0.5-0.5-0.9-1-1.1-1.4
		c-0.3-0.5-0.6-1-0.8-1.8c-0.2-0.6-0.4-1.5-0.5-2.5c-0.1-1-0.2-2.2-0.2-3.6c0-1.8,0.1-3.2,0.2-4.3c0.2-1.1,0.3-2.1,0.7-2.7
		c0.3-0.6,0.7-1.1,1.2-1.4c0.5-0.2,1-0.4,1.7-0.4c0.6,0,1.5,0.3,2.6,0.9c1,0.6,2.3,1.3,3.9,2s3.2,1.4,5.1,2c1.9,0.6,4.3,0.9,6.9,0.9
		c2.9,0,5.4-0.3,7.4-1c2-0.6,3.8-1.9,5.1-3.8c1.4-1.8,2.4-4.3,3-7.6c0.6-3.2,1-7.5,1-12.6V231.2c0-0.6,0.2-1,0.5-1.5
		c0.3-0.5,1-0.9,1.8-1.2c0.9-0.3,2-0.6,3.4-0.7c1.4-0.2,3.2-0.2,5.3-0.2c2,0,3.8,0.1,5.2,0.2c1.4,0.2,2.6,0.4,3.4,0.7
		c0.8,0.3,1.4,0.7,1.8,1.2c0.4,0.5,0.6,1,0.6,1.5v112.7H156.4z"/>
</g>
<g>
	<path d="M290.5,303.2c0,13.4-1.7,25.1-5.1,35.1c-3.4,10-8.4,18.3-15,24.9s-14.7,11.5-24.2,14.8c-9.5,3.3-20.9,4.9-34.2,4.9h-32.7
		c-1.8,0-3.5-0.6-5.2-1.8c-1.6-1.2-2.5-3.4-2.5-6.5v-138c0-3.1,0.8-5.3,2.5-6.5c1.6-1.2,3.4-1.8,5.2-1.8h35.1
		c13.4,0,24.7,1.8,33.9,5.2s17,8.4,23.3,14.9c6.3,6.5,11,14.4,14.2,23.6C288.9,281.1,290.5,291.6,290.5,303.2z M268.9,304.1
		c0-8.3-1-16.1-3.1-23.3c-2.1-7.2-5.3-13.5-9.7-18.7c-4.4-5.3-10-9.4-16.8-12.3c-6.7-3-15.5-4.4-26.1-4.4h-20.9v120.4h21.2
		c9.9,0,18.2-1.2,24.9-3.7c6.7-2.5,12.4-6.3,17-11.4c4.6-5.1,7.9-11.5,10.2-19.2C267.8,323.7,268.9,314.6,268.9,304.1z"/>
</g>
</svg>
